<svg width="44" height="44" viewBox="0 0 44 44" fill="none" xmlns="http://www.w3.org/2000/svg">
<g clip-path="url(#clip0_485_127)">
<path fill-rule="evenodd" clip-rule="evenodd" d="M19.315 13.0003C29.367 13.0003 35.6955 14.7123 38.9537 20.0941C40.494 22.6384 41.1666 25.7417 41.4918 29.2035C41.8176 32.672 41.815 36.7993 41.815 41.5003C41.815 42.881 40.6957 44.0003 39.315 44.0003C37.9343 44.0003 36.815 42.8811 36.815 41.5003C36.815 36.7194 36.8124 32.8555 36.5133 29.6712C36.2135 26.4803 35.636 24.268 34.6764 22.683C32.9345 19.8062 29.2626 18.0003 19.315 18.0003C17.9343 18.0003 16.815 16.8811 16.815 15.5003C16.8151 14.1197 17.9344 13.0003 19.315 13.0003ZM18.7496 1.3353C19.9453 0.64499 21.4742 1.05478 22.1647 2.25034C22.855 3.44607 22.4453 4.97502 21.2496 5.66538L8.24962 13.1712C6.58348 14.1336 6.58342 16.539 8.24962 17.5013L21.2496 25.0062C22.4452 25.6965 22.8547 27.2256 22.1647 28.4212C21.4743 29.6168 19.9453 30.0274 18.7496 29.3373L5.74962 21.8314C0.750101 18.9446 0.750154 11.728 5.74962 8.84116L18.7496 1.3353Z" fill="white"/>
</g>
<defs>
<clipPath id="clip0_485_127">
<rect width="44" height="44" fill="white"/>
</clipPath>
</defs>
</svg>
