<svg width="44" height="44" viewBox="0 0 44 44" fill="none" xmlns="http://www.w3.org/2000/svg">
<path fill-rule="evenodd" clip-rule="evenodd" d="M24.4999 13C14.4483 13 8.11949 14.7121 4.86127 20.0937C3.32102 22.638 2.64843 25.7414 2.32319 29.2031C1.99737 32.6715 1.99995 36.7991 1.99995 41.5C1.99995 42.8806 3.11943 43.9998 4.49995 44C5.88066 44 6.99995 42.8807 6.99995 41.5C6.99995 36.7192 7.00259 32.8551 7.3017 29.6709C7.60149 26.4801 8.17907 24.2675 9.13862 22.6826C10.8805 19.8059 14.5528 18 24.4999 18C25.8807 18 26.9999 16.8807 26.9999 15.5C26.9997 14.1195 25.8805 13 24.4999 13ZM25.0654 1.33495C23.8698 0.644761 22.3408 1.05454 21.6503 2.24999C20.96 3.44567 21.3698 4.97463 22.5654 5.66503L35.5654 13.1709C37.2319 14.1331 37.2318 16.5387 35.5654 17.501L22.5654 25.0058C21.3699 25.6961 20.9605 27.2252 21.6503 28.4209C22.3407 29.6165 23.8697 30.0271 25.0654 29.3369L38.0654 21.831C43.0651 18.9442 43.0652 11.7276 38.0654 8.84081L25.0654 1.33495Z" fill="white"/>
</svg>
