<svg width="55" height="55" viewBox="0 0 55 55" fill="none" xmlns="http://www.w3.org/2000/svg">
<circle cx="27.5" cy="27.5" r="26" fill="white" stroke="url(#paint0_linear_399_254)" stroke-width="3"/>
<mask id="mask0_399_254" style="mask-type:alpha" maskUnits="userSpaceOnUse" x="0" y="0" width="55" height="55">
<circle cx="27.5" cy="27.5" r="27.5" fill="url(#paint1_linear_399_254)"/>
</mask>
<g mask="url(#mask0_399_254)">
<path d="M26.9381 18.3333C33.5504 18.3333 38.9107 23.6937 38.9108 30.306C38.9108 34.04 37.201 37.374 34.5221 39.5697C40.6263 42.9043 44.897 50.5675 44.8971 59.4896C44.8971 71.4743 37.1922 81.1904 27.6871 81.1908C18.1818 81.1908 10.4762 71.4745 10.4762 59.4896C10.4762 50.9845 14.357 43.623 20.0074 40.0648C16.9575 37.8947 14.9655 34.3343 14.9655 30.306C14.9655 23.6937 20.3259 18.3335 26.9381 18.3333Z" fill="url(#paint2_linear_399_254)"/>
</g>
<defs>
<linearGradient id="paint0_linear_399_254" x1="27.5" y1="0" x2="27.5" y2="55" gradientUnits="userSpaceOnUse">
<stop stop-color="#ACDCFF"/>
<stop offset="1" stop-color="#E4A5FF"/>
</linearGradient>
<linearGradient id="paint1_linear_399_254" x1="55" y1="27.5" x2="0" y2="27.5" gradientUnits="userSpaceOnUse">
<stop offset="1" stop-color="#FFE45E"/>
</linearGradient>
<linearGradient id="paint2_linear_399_254" x1="27.6866" y1="18.3333" x2="27.6866" y2="81.1908" gradientUnits="userSpaceOnUse">
<stop stop-color="#ACDCFF"/>
<stop offset="1" stop-color="#E4A5FF"/>
</linearGradient>
</defs>
</svg>
