<svg width="76" height="76" viewBox="0 0 76 76" fill="none" xmlns="http://www.w3.org/2000/svg">
<rect x="1.5" y="1.5" width="73" height="73" rx="36.5" fill="white"/>
<rect x="1.5" y="1.5" width="73" height="73" rx="36.5" stroke="url(#paint0_linear_485_156)" stroke-width="3"/>
<path fill-rule="evenodd" clip-rule="evenodd" d="M50.4863 12.4723C50.9081 11.5346 52.3007 11.7677 52.3943 12.7916L56.7885 60.9317C56.8823 61.9596 55.5468 62.4384 54.9661 61.5852L39.2849 38.5329C39.0894 38.2455 39.0566 37.877 39.1993 37.56L50.4863 12.4723ZM47.3632 10.622C48.1929 10.0216 49.2821 10.9085 48.8619 11.8426L37.5532 36.9776C37.4095 37.2971 37.1088 37.5182 36.7611 37.5603L8.67563 40.9513C7.65092 41.0751 7.13317 39.7544 7.96915 39.149L47.3632 10.622Z" fill="url(#paint1_linear_485_156)"/>
<defs>
<linearGradient id="paint0_linear_485_156" x1="38" y1="0" x2="38" y2="76" gradientUnits="userSpaceOnUse">
<stop stop-color="#ACDCFF"/>
<stop offset="1" stop-color="#E4A5FF"/>
</linearGradient>
<linearGradient id="paint1_linear_485_156" x1="28.556" y1="12.3831" x2="33.8037" y2="64.2538" gradientUnits="userSpaceOnUse">
<stop stop-color="#ACDCFF"/>
<stop offset="1" stop-color="#E4A5FF"/>
</linearGradient>
</defs>
</svg>
