<svg width="55" height="55" viewBox="0 0 55 55" fill="none" xmlns="http://www.w3.org/2000/svg">
<g clip-path="url(#clip0_485_52)">
<circle cx="27.5" cy="27.5" r="26" fill="white" stroke="url(#paint0_linear_485_52)" stroke-width="3"/>
<path fill-rule="evenodd" clip-rule="evenodd" d="M23.7559 11.7676C23.7559 12.8721 24.6513 13.7676 25.7559 13.7676H30.0791C31.1835 13.7674 32.079 12.872 32.0791 11.7676V10.1973C34.0158 10.7083 35.8234 11.5366 37.4443 12.6221L35.9902 14.0771C35.2092 14.8582 35.2092 16.1242 35.9902 16.9053L39.0469 19.9619C39.8279 20.743 41.0939 20.743 41.875 19.9619L43.1025 18.7334C43.9733 20.2795 44.6213 21.9675 45.002 23.7549H43.2344C42.1298 23.7549 41.2344 24.6503 41.2344 25.7549V30.0781C41.2346 31.1825 42.1299 32.0781 43.2344 32.0781H44.8037C44.4055 33.5869 43.8142 35.0168 43.0596 36.3418L42.707 35.9893C41.926 35.2082 40.66 35.2082 39.8789 35.9893L36.8223 39.0459C36.0413 39.827 36.0413 41.093 36.8223 41.874L37.373 42.4248C35.7704 43.4869 33.9875 44.2982 32.0791 44.8018V43.2324C32.0789 42.1282 31.1834 41.2326 30.0791 41.2324H25.7559C24.6514 41.2324 23.7561 42.1281 23.7559 43.2324V45C21.7641 44.5758 19.895 43.8214 18.209 42.7949L19.1309 41.874C19.9118 41.0931 19.9117 39.8269 19.1309 39.0459L16.0742 35.9893C15.2932 35.2082 14.0262 35.2082 13.2451 35.9893L12.2959 36.9375C11.3702 35.4493 10.6567 33.8156 10.1982 32.0781H11.7686C12.8728 32.0779 13.7683 31.1824 13.7686 30.0781V25.7549C13.7686 24.6504 12.8729 23.7551 11.7686 23.7549H10C10.343 22.1444 10.9031 20.6145 11.6475 19.1963L12.4131 19.9619C13.1941 20.7429 14.4601 20.7429 15.2412 19.9619L18.2988 16.9053C19.0795 16.1243 19.0795 14.8581 18.2988 14.0771L17.1338 12.9131C19.0863 11.5229 21.3304 10.5166 23.7559 10V11.7676ZM27.501 17.0967C21.7552 17.0968 17.0967 21.7553 17.0967 27.501C17.0971 33.2463 21.7555 37.9042 27.501 37.9043C33.2465 37.9042 37.9039 33.2463 37.9043 27.501C37.9043 21.7553 33.2467 17.0968 27.501 17.0967Z" fill="url(#paint1_linear_485_52)"/>
</g>
<defs>
<linearGradient id="paint0_linear_485_52" x1="27.5" y1="0" x2="27.5" y2="55" gradientUnits="userSpaceOnUse">
<stop stop-color="#ACDCFF"/>
<stop offset="1" stop-color="#E4A5FF"/>
</linearGradient>
<linearGradient id="paint1_linear_485_52" x1="13.3519" y1="15.8486" x2="41.6492" y2="42.066" gradientUnits="userSpaceOnUse">
<stop stop-color="#ACDCFF"/>
<stop offset="1" stop-color="#E4A5FF"/>
</linearGradient>
<clipPath id="clip0_485_52">
<rect width="55" height="55" fill="white"/>
</clipPath>
</defs>
</svg>
